<?xml version="1.0" encoding="UTF-8"?>
<!DOCTYPE svg PUBLIC "-//W3C//DTD SVG 1.1//EN" "http://www.w3.org/Graphics/SVG/1.1/DTD/svg11.dtd">
<!-- Creator: CorelDRAW X8 -->
<svg xmlns="http://www.w3.org/2000/svg" xml:space="preserve" width="4.45233in" height="2.01049in" version="1.1" style="shape-rendering:geometricPrecision; text-rendering:geometricPrecision; image-rendering:optimizeQuality; fill-rule:evenodd; clip-rule:evenodd"
viewBox="0 0 699 316"
 xmlns:xlink="http://www.w3.org/1999/xlink">
 <defs>
  <style type="text/css">
   <![CDATA[
    .fil1 {fill:#6C63FF}
    .fil0 {fill:#E6E6E6}
    .fil2 {fill:white}
   ]]>
  </style>
 </defs>
 <g id="Layer_x0020_1">
  <metadata id="CorelCorpID_0Corel-Layer"/>
  <g id="_2562114801456">
   <path id="e1cfef3e-7788-4f0f-b252-d185c9336b04" class="fil0" d="M686 298l-384 0c-8,0 -14,-5 -14,-10l0 -84c0,-5 6,-9 14,-9l384 0c7,0 13,4 13,9l0 84c0,5 -6,10 -13,10zm-384 -99c-5,0 -9,2 -9,5l0 84c0,3 4,6 9,6l384 0c4,0 8,-3 8,-6l0 -84c0,-3 -4,-5 -8,-5l-384 0z" data-name="Path 78"/>
   <path class="fil1" d="M388 242c-4,0 -8,4 -8,8l0 58c0,4 4,8 8,8l293 0c5,0 9,-4 9,-8l0 -58c0,-4 -4,-8 -9,-8l-293 0z"/>
   <circle class="fil2" cx="429" cy="280" r="18"/>
   <path class="fil2" d="M511 272c-4,0 -7,3 -7,7 0,4 3,8 7,8l104 0c4,0 7,-4 7,-8 0,-4 -3,-7 -7,-7l-104 0z"/>
   <path id="b00e8b21-64f0-4b6c-8490-a93637cb24e1" class="fil0" d="M398 103l-384 0c-8,0 -14,-4 -14,-10l0 -83c0,-6 6,-10 14,-10l384 0c7,0 13,4 13,10l0 83c0,6 -6,10 -13,10zm-384 -99c-5,0 -9,2 -9,6l0 83c0,3 4,6 9,6l384 0c4,0 8,-3 8,-6l0 -83c0,-4 -4,-6 -8,-6l-384 0z" data-name="Path 78"/>
   <path class="fil1" d="M100 47c-4,0 -8,4 -8,9l0 57c0,4 4,8 8,8l293 0c5,0 9,-4 9,-8l0 -57c0,-5 -4,-9 -9,-9l-293 0z"/>
   <circle class="fil2" cx="141" cy="85" r="18"/>
   <path class="fil2" d="M223 77c-4,0 -7,4 -7,8 0,4 3,7 7,7l104 0c4,0 7,-3 7,-7 0,-4 -3,-8 -7,-8l-104 0z"/>
  </g>
 </g>
</svg>
