<?xml version="1.0" encoding="UTF-8"?>
<!DOCTYPE svg PUBLIC "-//W3C//DTD SVG 1.1//EN" "http://www.w3.org/Graphics/SVG/1.1/DTD/svg11.dtd">
<!-- Creator: CorelDRAW X8 -->
<svg xmlns="http://www.w3.org/2000/svg" xml:space="preserve" width="5.16145in" height="2.35937in" version="1.1" style="shape-rendering:geometricPrecision; text-rendering:geometricPrecision; image-rendering:optimizeQuality; fill-rule:evenodd; clip-rule:evenodd"
viewBox="0 0 672 307"
 xmlns:xlink="http://www.w3.org/1999/xlink">
 <defs>
  <style type="text/css">
   <![CDATA[
    .fil1 {fill:#6C63FF}
    .fil0 {fill:#E6E6E6}
   ]]>
  </style>
 </defs>
 <g id="Layer_x0020_1">
  <metadata id="CorelCorpID_0Corel-Layer"/>
  <g id="_2562020282480">
   <path class="fil0" d="M656 307l-646 0c-5,0 -10,-4 -10,-10l0 -281c0,-5 5,-10 10,-10l646 0c6,0 10,5 10,10l0 281c0,6 -4,10 -10,10l0 0zm-636 -307c-3,0 -6,3 -6,6l0 281c0,3 3,6 6,6l646 0c4,0 6,-3 6,-6l0 -281c0,-3 -2,-6 -6,-6l-646 0z"/>
   <path class="fil0" d="M37 41c-4,0 -6,2 -6,6 0,3 2,6 6,6l85 0c3,0 6,-3 6,-6 0,-4 -3,-6 -6,-6l-85 0z"/>
   <path class="fil0" d="M622 83l0 113 -577 0 0 -59c4,-3 8,-5 12,-8 18,-10 36,-20 56,-24 6,-1 11,-1 16,-1 4,0 9,0 13,1 11,1 20,5 30,8 9,4 19,7 29,9 5,1 10,2 16,2 4,0 9,0 13,-1 18,-3 36,-10 53,-17 18,-7 36,-13 55,-14 18,-1 37,4 54,9 36,11 73,28 111,16 39,-11 75,-44 118,-34 0,0 1,0 1,0l0 0z"/>
   <path class="fil1" d="M622 85c-1,1 -1,1 -2,1 0,0 0,0 0,0 -5,-1 -10,-2 -15,-2 0,0 0,0 -1,0 -42,1 -75,35 -116,40 -37,5 -72,-13 -107,-23 -19,-5 -37,-7 -56,-4 -19,3 -36,11 -54,18 -16,6 -34,12 -52,13 -20,0 -38,-8 -57,-15 -10,-3 -20,-6 -30,-6 0,0 -1,0 -1,0 -10,0 -19,2 -28,5 -20,6 -38,17 -55,28 -1,1 -1,1 -1,1 0,0 0,0 0,0 -1,0 -2,-1 -2,-2 0,-1 0,-1 1,-2l1 0c4,-3 8,-5 12,-8 17,-10 35,-20 56,-24 5,-1 10,-1 15,-1 4,0 9,0 13,1 10,1 20,5 30,8 9,4 19,7 29,9 5,1 10,2 16,2 4,0 8,0 13,-1 18,-3 36,-10 53,-17 17,-7 35,-13 54,-14 19,-1 37,4 55,9 36,11 72,28 111,16 38,-11 74,-44 117,-34 0,0 1,0 1,0 0,0 0,1 0,1 0,0 0,1 0,1l0 0z"/>
   <circle class="fil1" cx="125" cy="106" r="8"/>
   <circle class="fil1" cx="338" cy="95" r="8"/>
   <circle class="fil1" cx="598" cy="84" r="8"/>
   <path class="fil0" d="M120 244c-3,0 -6,3 -6,6 0,4 3,6 6,6l86 0c3,0 6,-2 6,-6 0,-3 -3,-6 -6,-6l-86 0z"/>
   <circle class="fil1" cx="65" cy="250" r="23"/>
   <path class="fil0" d="M326 244c-3,0 -6,3 -6,6 0,4 3,6 6,6l86 0c3,0 6,-2 6,-6 0,-3 -3,-6 -6,-6l-86 0z"/>
   <circle class="fil1" cx="271" cy="250" r="23"/>
   <path class="fil0" d="M533 244c-4,0 -7,3 -7,6 0,4 3,6 7,6l85 0c3,0 6,-2 6,-6 0,-3 -3,-6 -6,-6l-85 0z"/>
   <circle class="fil1" cx="478" cy="250" r="23"/>
  </g>
 </g>
</svg>
