<?xml version="1.0" encoding="UTF-8"?>
<!DOCTYPE svg PUBLIC "-//W3C//DTD SVG 1.1//EN" "http://www.w3.org/Graphics/SVG/1.1/DTD/svg11.dtd">
<!-- Creator: CorelDRAW X8 -->
<svg xmlns="http://www.w3.org/2000/svg" xml:space="preserve" width="2.10417in" height="5.77083in" version="1.1" style="shape-rendering:geometricPrecision; text-rendering:geometricPrecision; image-rendering:optimizeQuality; fill-rule:evenodd; clip-rule:evenodd"
viewBox="0 0 81 221"
 xmlns:xlink="http://www.w3.org/1999/xlink">
 <defs>
  <style type="text/css">
   <![CDATA[
    .fil2 {fill:#2F2E41}
    .fil3 {fill:#3F3D56}
    .fil0 {fill:#E6E6E6}
    .fil1 {fill:#FFB8B8}
   ]]>
  </style>
 </defs>
 <g id="Layer_x0020_1">
  <metadata id="CorelCorpID_0Corel-Layer"/>
  <g id="_2562096761584">
   <ellipse class="fil0" cx="40" cy="217" rx="40" ry="4"/>
   <circle class="fil1" cx="41" cy="14" r="11"/>
   <path class="fil1" d="M52 34l-19 0c2,-5 2,-9 1,-13l15 -1c-2,5 -1,9 3,14z"/>
   <path class="fil1" d="M12 110l3 9c0,1 1,1 1,2 0,2 -2,5 -5,5l0 0c0,0 0,0 -1,0 -2,0 -5,-2 -5,-5 0,0 0,0 0,0l1 -10 2 -51 12 3 -8 47z"/>
   <path class="fil1" d="M69 110l-3 9c0,1 0,1 0,2 0,2 2,5 4,5l0 0c0,0 1,0 1,0 3,0 5,-2 5,-5 0,0 0,0 0,0l0 -10 -3 -51 -11 3 7 47z"/>
   <polygon class="fil2" points="57,206 48,205 40,124 28,206 19,206 17,116 58,116 "/>
   <path class="fil2" d="M27 9c0,0 3,7 5,7 2,1 6,4 6,6 -1,1 -1,6 5,5 7,0 6,-1 6,-1 0,0 10,-19 0,-24 -10,-5 -19,-1 -22,7z"/>
   <path class="fil2" d="M19 202l0 7c0,0 -5,9 2,9 0,0 0,0 0,0 5,0 9,3 9,-3l-1 -7 -2 -7 -8 1z"/>
   <path class="fil2" d="M57 202l0 7c0,0 5,9 -2,9 0,0 0,0 0,0 -5,0 -9,3 -9,-3l1 -7 2 -7 8 1z"/>
   <path class="fil3" d="M62 120l-46 -2c9,-28 9,-50 -2,-71 0,-4 2,-8 7,-10l13 -6 17 1 11 6c4,3 7,7 7,12 0,0 0,0 0,1 -10,23 -11,46 -7,69z"/>
   <path class="fil3" d="M28 66l-26 -4 4 -11c3,-7 9,-13 17,-15l3 -1 2 31z"/>
   <path class="fil3" d="M54 66l25 -4 -4 -11c-3,-7 -9,-13 -17,-15l-2 -1 -2 31z"/>
  </g>
 </g>
</svg>
