<?xml version="1.0" encoding="UTF-8"?>
<!DOCTYPE svg PUBLIC "-//W3C//DTD SVG 1.1//EN" "http://www.w3.org/Graphics/SVG/1.1/DTD/svg11.dtd">
<!-- Creator: CorelDRAW X8 -->
<svg xmlns="http://www.w3.org/2000/svg" xml:space="preserve" width="2.60134in" height="0.735142in" version="1.1" style="shape-rendering:geometricPrecision; text-rendering:geometricPrecision; image-rendering:optimizeQuality; fill-rule:evenodd; clip-rule:evenodd"
viewBox="0 0 126 36"
 xmlns:xlink="http://www.w3.org/1999/xlink">
 <defs>
  <style type="text/css">
   <![CDATA[
    .fil0 {fill:#3F3D56}
    .fil1 {fill:#6C63FF}
    .fil2 {fill:#E6E6E6}
   ]]>
  </style>
 </defs>
 <g id="Layer_x0020_1">
  <metadata id="CorelCorpID_0Corel-Layer"/>
  <g id="_2562096785936">
   <path class="fil0" d="M122 36l-120 0c-1,0 -2,-1 -2,-3l0 -29c0,-2 1,-3 2,-3l120 0c2,0 3,1 3,3l0 29c0,2 -1,3 -3,3l0 0zm-118 -36c0,0 -1,1 -1,1l0 30c0,1 1,1 1,1l121 0c0,0 1,0 1,-1l0 -30c0,0 -1,-1 -1,-1l-121 0z"/>
   <circle class="fil1" cx="21" cy="17" r="9"/>
   <path class="fil2" d="M42 11c-1,0 -2,1 -2,2 0,1 1,1 2,1l71 0c1,0 2,0 2,-1 0,-1 -1,-2 -2,-2l-71 0z"/>
   <path class="fil2" d="M42 20c-1,0 -2,1 -2,2 0,1 1,1 2,1l31 0c0,0 1,0 1,-1 0,-1 -1,-2 -1,-2l-31 0z"/>
  </g>
 </g>
</svg>
