<?xml version="1.0" encoding="UTF-8"?>
<!DOCTYPE svg PUBLIC "-//W3C//DTD SVG 1.1//EN" "http://www.w3.org/Graphics/SVG/1.1/DTD/svg11.dtd">
<!-- Creator: CorelDRAW X8 -->
<svg xmlns="http://www.w3.org/2000/svg" xml:space="preserve" width="1.19496in" height="1.2407in" version="1.1" style="shape-rendering:geometricPrecision; text-rendering:geometricPrecision; image-rendering:optimizeQuality; fill-rule:evenodd; clip-rule:evenodd"
viewBox="0 0 24 25"
 xmlns:xlink="http://www.w3.org/1999/xlink">
 <defs>
  <style type="text/css">
   <![CDATA[
    .fil0 {fill:#3F3D56}
    .fil2 {fill:#6C63FF}
    .fil1 {fill:#E6E6E6}
   ]]>
  </style>
 </defs>
 <g id="Layer_x0020_1">
  <metadata id="CorelCorpID_0Corel-Layer"/>
  <g id="_2562086910160">
   <path class="fil0" d="M1 0l22 0c0,0 1,0 1,1l0 23c0,0 -1,1 -1,1l-22 0c-1,0 -1,-1 -1,-1l0 -23c0,-1 0,-1 1,-1l0 0zm22 24c0,0 0,0 0,0l0 -23c0,0 0,-1 0,-1l-22 0c0,0 -1,1 -1,1l0 23c0,0 1,0 1,0l22 0z"/>
   <path class="fil1" d="M18 20c1,0 1,0 1,-1 0,0 0,0 -1,0l-12 0c-1,0 -1,0 -1,0 0,1 0,1 1,1l12 0z"/>
   <path class="fil1" d="M18 16c1,0 1,0 1,0 0,-1 0,-1 -1,-1l-12 0c-1,0 -1,0 -1,1 0,0 0,0 1,0l12 0z"/>
   <path class="fil2" d="M12 5c2,0 4,1 4,4 0,2 -2,4 -4,4 -2,0 -4,-2 -4,-4 0,-3 2,-4 4,-4l0 0z"/>
  </g>
 </g>
</svg>
