<?xml version="1.0" encoding="UTF-8"?>
<!DOCTYPE svg PUBLIC "-//W3C//DTD SVG 1.1//EN" "http://www.w3.org/Graphics/SVG/1.1/DTD/svg11.dtd">
<!-- Creator: CorelDRAW X8 -->
<svg xmlns="http://www.w3.org/2000/svg" xml:space="preserve" width="6.49339in" height="5.60837in" version="1.1" style="shape-rendering:geometricPrecision; text-rendering:geometricPrecision; image-rendering:optimizeQuality; fill-rule:evenodd; clip-rule:evenodd"
viewBox="0 0 23035 19896"
 xmlns:xlink="http://www.w3.org/1999/xlink"
 enable-background="new 0 0 24 24">
 <defs>
  <style type="text/css">
   <![CDATA[
    .fil0 {fill:#6C63FF}
   ]]>
  </style>
 </defs>
 <g id="Layer_x0020_1">
  <metadata id="CorelCorpID_0Corel-Layer"/>
  <g id="_2200925085488">
   <g>
    <path class="fil0" d="M13012 0l-2004 0c-815,0 -1478,663 -1478,1477l0 2005c0,814 663,1477 1478,1477l2004 0c815,0 1477,-663 1477,-1477l0 -2005c0,-814 -662,-1477 -1477,-1477zm979 3482c0,540 -438,978 -979,978l-2004 0c-541,0 -979,-438 -979,-978l0 -2005c0,-540 438,-978 979,-978l2004 0c541,0 979,438 979,978l0 2005 0 0z"/>
    <path class="fil0" d="M12010 1197c-707,0 -1283,575 -1283,1283 0,707 576,1282 1283,1282 707,0 1283,-575 1283,-1282 0,-708 -576,-1283 -1283,-1283zm0 2066c-433,0 -784,-351 -784,-783 0,-433 351,-784 784,-784 433,0 784,351 784,784 0,432 -351,783 -784,783z"/>
    <circle class="fil0" cx="13295" cy="1207" r="307"/>
   </g>
   <g>
   </g>
   <g>
   </g>
   <g>
   </g>
   <g>
   </g>
   <g>
   </g>
   <g>
   </g>
   <g>
   </g>
   <g>
   </g>
   <g>
   </g>
   <g>
   </g>
   <g>
   </g>
   <g>
   </g>
   <g>
   </g>
   <g>
   </g>
   <g>
   </g>
  </g>
  <g id="_2200925091888">
   <path class="fil0" d="M9269 15498l-3602 0c-220,0 -398,178 -398,398l0 3602c0,220 178,398 398,398l3602 0c220,0 398,-178 398,-398l0 -3602c0,-220 -178,-398 -398,-398zm-2639 3797c0,64 -52,116 -116,116l-493 0c-64,0 -115,-52 -115,-116l0 -2066c0,-64 51,-115 115,-115l493 0c64,0 116,51 116,115l0 2066zm-362 -2376c-259,0 -468,-210 -468,-468 0,-259 209,-469 468,-469 258,0 468,210 468,469 0,258 -210,468 -468,468zm2937 2386c0,58 -47,106 -106,106l-529 0c-59,0 -106,-48 -106,-106l0 -969c0,-145 42,-634 -378,-634 -326,0 -392,335 -405,485l0 1118c0,58 -48,106 -107,106l-511 0c-59,0 -107,-48 -107,-106l0 -2085c0,-59 48,-106 107,-106l511 0c59,0 107,47 107,106l0 180c120,-181 300,-321 682,-321 847,0 842,791 842,1226l0 1000 0 0z"/>
   <g>
   </g>
   <g>
   </g>
   <g>
   </g>
   <g>
   </g>
   <g>
   </g>
   <g>
   </g>
   <g>
   </g>
   <g>
   </g>
   <g>
   </g>
   <g>
   </g>
   <g>
   </g>
   <g>
   </g>
   <g>
   </g>
   <g>
   </g>
   <g>
   </g>
  </g>
  <g id="_2200925097904">
   <path class="fil0" d="M22458 2191c-347,-260 -803,-403 -1285,-403 -482,0 -934,146 -1273,412 -357,279 -554,658 -554,1066 0,378 60,670 352,1007 35,41 97,44 136,7l287 -273c36,-34 39,-91 7,-129 -178,-209 -199,-361 -199,-612 0,-493 558,-895 1244,-895 357,0 689,102 936,287 221,165 343,377 343,597 0,211 -47,500 -269,678 -210,169 -544,213 -942,126l0 -1070c0,-51 -42,-93 -93,-93l-415 0c-52,0 -94,42 -94,93l0 2183c-3,22 -17,35 -23,40 -16,12 -30,10 -35,9l-345 -71c-50,-10 -100,23 -110,74l-83 406c-10,51 22,101 73,111l345 70c43,9 85,13 128,13 141,0 281,-47 395,-135 153,-118 246,-296 257,-489l0 -8 0 -539c128,22 253,32 372,32 368,0 690,-101 935,-297 319,-256 487,-648 487,-1133 0,-408 -205,-786 -577,-1064z"/>
   <g>
   </g>
   <g>
   </g>
   <g>
   </g>
   <g>
   </g>
   <g>
   </g>
   <g>
   </g>
   <g>
   </g>
   <g>
   </g>
   <g>
   </g>
   <g>
   </g>
   <g>
   </g>
   <g>
   </g>
   <g>
   </g>
   <g>
   </g>
   <g>
   </g>
  </g>
  <g id="_2165811081616">
   <g>
    <path class="fil0" d="M19812 8642c-1391,66 -2489,1224 -2485,2617 2,424 104,825 285,1179l-278 1346c-15,73 51,137 123,120l1320 -313c339,169 719,266 1122,273 1422,21 2608,-1108 2652,-2529 48,-1524 -1210,-2766 -2739,-2693zm1575 4056c-387,386 -901,599 -1447,599 -320,0 -626,-72 -910,-213l-184 -92 -809 192 170 -827 -90 -177c-148,-289 -223,-602 -223,-929 0,-546 213,-1060 599,-1446 383,-383 905,-600 1447,-600 546,0 1060,213 1447,600 386,386 599,900 599,1446 0,542 -216,1064 -599,1447z"/>
    <path class="fil0" d="M21208 11818l-506 -146c-67,-19 -138,0 -187,50l-123 126c-53,53 -132,70 -201,42 -239,-97 -743,-545 -872,-769 -37,-64 -31,-145 15,-204l108 -140c42,-54 51,-128 23,-191l-213 -482c-51,-115 -198,-149 -294,-67 -141,119 -309,301 -329,502 -36,354 116,801 691,1338 664,620 1196,702 1542,618 197,-48 354,-238 453,-394 68,-107 14,-248 -107,-283z"/>
   </g>
   <g>
   </g>
   <g>
   </g>
   <g>
   </g>
   <g>
   </g>
   <g>
   </g>
   <g>
   </g>
   <g>
   </g>
   <g>
   </g>
   <g>
   </g>
   <g>
   </g>
   <g>
   </g>
   <g>
   </g>
   <g>
   </g>
   <g>
   </g>
   <g>
   </g>
  </g>
  <g id="_2165811074096">
   <path class="fil0" d="M11265 12494l-73 1022c104,0 149,-45 203,-99l487 -465 1009 739c185,103 316,49 366,-170l662 -3105 0 0c59,-273 -98,-380 -279,-313l-3894 1491c-266,103 -262,251 -45,318l995 310 2313 -1447c109,-72 208,-32 126,40l-1870 1679z"/>
  </g>
  <g id="_2165811072880">
   <path class="fil0" d="M4518 4852l-3334 0c-654,0 -1184,530 -1184,1184l0 1667c0,654 530,1184 1184,1184l3334 0c654,0 1184,-530 1184,-1184l0 -1667c0,-654 -530,-1184 -1184,-1184zm-801 2099l-1559 743c-42,20 -90,-10 -90,-56l0 -1534c0,-47 49,-77 91,-56l1559 790c47,24 46,90 -1,113z"/>
   <g>
   </g>
   <g>
   </g>
   <g>
   </g>
   <g>
   </g>
   <g>
   </g>
   <g>
   </g>
   <g>
   </g>
   <g>
   </g>
   <g>
   </g>
   <g>
   </g>
   <g>
   </g>
   <g>
   </g>
   <g>
   </g>
   <g>
   </g>
   <g>
   </g>
  </g>
 </g>
</svg>
