<?xml version="1.0" encoding="UTF-8"?>
<!DOCTYPE svg PUBLIC "-//W3C//DTD SVG 1.1//EN" "http://www.w3.org/Graphics/SVG/1.1/DTD/svg11.dtd">
<!-- Creator: CorelDRAW X8 -->
<svg xmlns="http://www.w3.org/2000/svg" xml:space="preserve" width="2.21617in" height="4.58287in" version="1.1" style="shape-rendering:geometricPrecision; text-rendering:geometricPrecision; image-rendering:optimizeQuality; fill-rule:evenodd; clip-rule:evenodd"
viewBox="0 0 88 182"
 xmlns:xlink="http://www.w3.org/1999/xlink">
 <defs>
  <style type="text/css">
   <![CDATA[
    .fil3 {fill:#2F2E41}
    .fil1 {fill:#575A88}
    .fil2 {fill:#6C63FF}
    .fil0 {fill:#FFB8B8}
   ]]>
  </style>
 </defs>
 <g id="Layer_x0020_1">
  <metadata id="CorelCorpID_0Corel-Layer"/>
  <g id="_2562008988576">
   <path class="fil0" d="M86 90l0 0c1,-1 2,-2 2,-4 0,-1 -1,-2 -1,-3l-6 -7 -6 3 4 9c1,2 3,3 4,3 1,0 2,0 3,-1l0 0z"/>
   <path class="fil0" d="M6 110l0 0c3,0 4,-2 4,-5 0,0 0,0 0,-1l-2 -9 -7 0 0 10c0,3 2,5 5,5 0,0 0,0 0,0l0 0z"/>
   <polygon class="fil0" points="45,176 57,174 52,169 45,169 "/>
   <path class="fil0" d="M4 177l13 3c-2,-5 -3,-9 -3,-12l-6 -1 -4 10z"/>
   <polygon class="fil1" points="7,168 15,170 36,103 44,169 52,169 52,75 20,75 "/>
   <path class="fil1" d="M47 179l12 -4c1,0 2,-1 2,-2 0,-1 0,-1 0,-1l0 0c-1,-1 -1,-2 -2,-2 0,0 0,0 -1,0l-2 0 -1 0c-1,0 -1,0 -1,0 0,0 0,0 0,0 0,0 0,1 0,1l1 2 -11 -1 0 4c0,1 0,1 0,1 0,1 1,2 2,2 1,0 1,0 1,0l0 0z"/>
   <path class="fil1" d="M5 181l14 1c0,0 0,0 0,0 1,0 2,-1 2,-3 0,0 0,0 0,0l0 0c0,-1 0,-2 -1,-2l-3 -1 -1 -1c0,0 0,0 -1,0 0,0 0,0 0,0 0,0 0,0 0,0l0 3 -10 -4 -2 3c0,1 0,1 0,1 0,2 1,3 2,3l0 0z"/>
   <circle class="fil0" cx="34" cy="13" r="9"/>
   <path class="fil0" d="M28 30l12 0 0 -13 -12 0c1,4 1,8 0,13z"/>
   <path class="fil2" d="M19 76l34 1 3 -37c0,-5 -3,-9 -7,-10l-6 -2 -3 -4c-3,0 -7,0 -12,1l-3 4 -3 1c-5,2 -8,6 -8,11 0,0 0,0 0,0 3,14 5,26 5,35z"/>
   <path class="fil2" d="M0 95l9 1 9 -39 1 -26 0 1c-5,2 -8,6 -9,11l-10 52z"/>
   <path class="fil2" d="M75 81l7 -3 -20 -37c-3,-5 -7,-9 -13,-11l0 0 4 23 22 28z"/>
   <path class="fil3" d="M28 21c0,0 9,-1 9,-2 0,-2 2,-5 3,-5 2,0 6,-5 5,-7 -1,-2 -5,-10 -14,-6 -9,3 -8,12 -7,14 1,2 4,6 4,6z"/>
  </g>
 </g>
</svg>
