<?xml version="1.0" encoding="UTF-8"?>
<!DOCTYPE svg PUBLIC "-//W3C//DTD SVG 1.1//EN" "http://www.w3.org/Graphics/SVG/1.1/DTD/svg11.dtd">
<!-- Creator: CorelDRAW X8 -->
<svg xmlns="http://www.w3.org/2000/svg" xml:space="preserve" width="9.1911in" height="5.75224in" version="1.1" style="shape-rendering:geometricPrecision; text-rendering:geometricPrecision; image-rendering:optimizeQuality; fill-rule:evenodd; clip-rule:evenodd"
viewBox="0 0 1437 899"
 xmlns:xlink="http://www.w3.org/1999/xlink">
 <defs>
  <style type="text/css">
   <![CDATA[
    .fil0 {fill:#2F2E41}
    .fil1 {fill:#3F3D56}
    .fil3 {fill:#6C63FF}
    .fil4 {fill:#E6E6E6}
    .fil2 {fill:white}
   ]]>
  </style>
 </defs>
 <g id="Layer_x0020_1">
  <metadata id="CorelCorpID_0Corel-Layer"/>
  <path class="fil0" d="M1392 899l-1347 0c-25,0 -45,-18 -45,-40l0 0c488,-51 967,-51 1437,0l0 0c0,22 -20,40 -45,40l0 0z"/>
  <path class="fil1" d="M1437 861l-1437 -2 167 -252 0 -1 0 -555c0,0 0,0 0,0 0,-28 26,-51 57,-51 0,0 0,0 0,0l980 0c0,0 0,0 0,0 32,0 57,23 57,51 0,0 0,0 0,0l0 559 176 251z"/>
  <path class="fil2" d="M223 36c-10,0 -18,7 -19,16l0 506c1,9 9,17 19,17l991 0c10,0 18,-8 18,-17l0 -506c0,-9 -8,-16 -18,-16l-991 0z"/>
  <path class="fil0" d="M230 642c-4,0 -6,1 -8,4l-51 100c0,1 -1,2 -1,3 0,4 4,7 8,7l1079 0c5,0 8,-3 8,-7 0,-1 0,-2 -1,-3l-55 -100c-2,-3 -4,-4 -7,-4 0,0 0,0 0,0l-972 0z"/>
  <path class="fil0" d="M608 775c-3,0 -6,2 -7,5l-13 43c0,1 0,2 0,2 0,4 3,7 7,7 0,0 0,0 0,0l245 0c0,0 0,0 0,0 5,0 8,-3 8,-7 0,-1 0,-1 0,-2l-17 -43c-1,-3 -4,-5 -7,-5l-216 0z"/>
  <polygon class="fil0" points="1261,597 1261,607 167,607 167,606 167,597 "/>
  <circle class="fil3" cx="341" cy="129" r="25"/>
  <polygon class="fil2" points="339,139 331,130 336,127 339,131 351,119 355,122 "/>
  <circle class="fil3" cx="341" cy="275" r="25"/>
  <polygon class="fil2" points="339,286 331,276 336,273 339,277 351,265 355,269 "/>
  <circle class="fil4" cx="341" cy="422" r="25"/>
  <polygon class="fil2" points="339,432 331,422 336,419 339,424 351,411 355,415 "/>
  <path class="fil3" d="M1142 619c0,0 -1,1 -1,2l-2 10c-1,0 -1,0 -1,1 0,0 1,1 2,1l43 0c1,0 2,-1 2,-1 0,-1 0,-1 0,-1l-3 -10c0,-1 -1,-2 -2,-2l-38 0z"/>
  <path class="fil3" d="M1079 619c-1,0 -1,1 -2,2l-2 10c0,0 0,0 0,1 0,0 1,1 1,1l44 0c1,0 1,-1 1,-1 0,-1 0,-1 0,-1l-3 -10c0,-1 0,-2 -1,-2l-38 0z"/>
 </g>
</svg>
