<?xml version="1.0" encoding="UTF-8"?>
<!DOCTYPE svg PUBLIC "-//W3C//DTD SVG 1.1//EN" "http://www.w3.org/Graphics/SVG/1.1/DTD/svg11.dtd">
<!-- Creator: CorelDRAW X8 -->
<svg xmlns="http://www.w3.org/2000/svg" xml:space="preserve" width="8.25454in" height="5.75224in" version="1.1" style="shape-rendering:geometricPrecision; text-rendering:geometricPrecision; image-rendering:optimizeQuality; fill-rule:evenodd; clip-rule:evenodd"
viewBox="0 0 1661 1157"
 xmlns:xlink="http://www.w3.org/1999/xlink">
 <defs>
  <style type="text/css">
   <![CDATA[
    .fil3 {fill:#2F2E41}
    .fil4 {fill:#6C63FF}
    .fil0 {fill:#CCCCCC}
    .fil1 {fill:#E6E6E6}
    .fil2 {fill:white}
   ]]>
  </style>
 </defs>
 <g id="Layer_x0020_1">
  <metadata id="CorelCorpID_0Corel-Layer"/>
  <g id="_2562083489280">
   <path class="fil0" d="M1609 1157l-1557 0c-29,0 -52,-23 -52,-52l0 0c564,-65 1118,-65 1661,0l0 0c0,29 -24,52 -52,52l0 0z"/>
   <path class="fil1" d="M1661 1108l-1661 -3 192 -324 1 -1 0 -714c0,0 0,0 0,0 0,-36 30,-66 66,-66 0,0 0,0 0,0l1133 0c0,0 0,0 0,0 37,0 66,30 66,66 0,0 0,0 0,0l0 719 203 323z"/>
   <path class="fil2" d="M258 46c-12,0 -22,10 -22,22l0 650c0,12 10,22 22,22l1145 0c12,0 21,-10 21,-22l0 -650c0,-12 -9,-22 -21,-22l-1145 0z"/>
   <path class="fil0" d="M265 826c-3,0 -6,2 -8,5l-59 129c-1,1 -1,3 -1,4 0,5 4,9 9,9l1247 0c5,0 10,-4 10,-9 0,-2 -1,-3 -1,-4l-65 -129c-1,-3 -5,-5 -8,-5 0,0 0,0 0,0l-1124 0z"/>
   <circle class="fil2" cx="826" cy="21" r="14"/>
   <path class="fil0" d="M703 998c-4,0 -8,2 -9,7l-15 55c0,1 0,1 0,2 0,5 4,9 9,9 0,0 0,0 0,0l283 0c0,0 0,0 0,0 5,0 9,-4 9,-9 0,-1 0,-2 0,-3l-19 -55c-1,-4 -5,-6 -9,-6l-249 0z"/>
   <polygon class="fil0" points="1458,769 1458,781 192,781 193,780 193,769 "/>
   <path class="fil0" d="M1302 797c-1,0 -2,1 -2,2l-4 13c0,0 0,1 0,1 0,1 1,2 2,2 0,0 0,0 0,0l69 0c0,0 0,0 0,0 1,0 2,-1 2,-2 0,0 0,-1 0,-1l-4 -13c-1,-1 -1,-2 -2,-2l-61 0z"/>
   <path class="fil0" d="M1201 797c-1,0 -2,1 -2,2l-3 13c-1,0 -1,1 -1,1 0,1 1,2 3,2 0,0 0,0 0,0l69 0c0,0 0,0 0,0 1,0 2,-1 2,-2 0,0 0,-1 0,-1l-5 -13c0,-1 -1,-2 -2,-2l-61 0z"/>
   <ellipse class="fil3" transform="matrix(0.357029 -0.934093 0.934093 0.357029 500.592 615.39)" rx="45" ry="14"/>
   <circle class="fil3" transform="matrix(0.160182 -0.987087 0.987087 0.160182 417.165 683.549)" r="90"/>
   <rect class="fil3" x="376" y="754" width="27.4203" height="49.1286"/>
   <rect class="fil3" x="431" y="754" width="27.4203" height="49.1286"/>
   <ellipse class="fil3" cx="399" cy="804" rx="23" ry="9"/>
   <ellipse class="fil3" cx="454" cy="803" rx="23" ry="9"/>
   <path class="fil4" d="M330 600c-8,-33 16,-66 52,-74 36,-8 71,12 78,44 7,33 -17,45 -53,53 -36,8 -70,9 -77,-23z"/>
   <ellipse class="fil3" transform="matrix(0.428529 -0.903528 0.903528 0.428529 315.503 641.668)" rx="14" ry="45"/>
  </g>
 </g>
</svg>
