<?xml version="1.0" encoding="UTF-8"?>
<!DOCTYPE svg PUBLIC "-//W3C//DTD SVG 1.1//EN" "http://www.w3.org/Graphics/SVG/1.1/DTD/svg11.dtd">
<!-- Creator: CorelDRAW X8 -->
<svg xmlns="http://www.w3.org/2000/svg" xml:space="preserve" width="4.17212in" height="3.64372in" version="1.1" style="shape-rendering:geometricPrecision; text-rendering:geometricPrecision; image-rendering:optimizeQuality; fill-rule:evenodd; clip-rule:evenodd"
viewBox="0 0 245 214"
 xmlns:xlink="http://www.w3.org/1999/xlink">
 <defs>
  <style type="text/css">
   <![CDATA[
    .fil0 {fill:#2F2E41}
    .fil2 {fill:#3F3D56}
    .fil4 {fill:#6C63FF}
    .fil3 {fill:#E6E6E6}
    .fil1 {fill:white}
   ]]>
  </style>
 </defs>
 <g id="Layer_x0020_1">
  <metadata id="CorelCorpID_0Corel-Layer"/>
  <g id="_2562095997696">
   <circle class="fil0" cx="51" cy="176" r="26"/>
   <rect class="fil0" x="39" y="197" width="7.99863" height="14.3311"/>
   <rect class="fil0" x="55" y="197" width="7.99863" height="14.3311"/>
   <ellipse class="fil0" cx="45" cy="211" rx="7" ry="2"/>
   <ellipse class="fil0" cx="61" cy="211" rx="7" ry="2"/>
   <circle class="fil1" cx="51" cy="170" r="9"/>
   <circle class="fil2" cx="51" cy="170" r="3"/>
   <path class="fil3" d="M25 152c-2,-10 5,-19 15,-22 11,-2 21,4 23,13 2,10 -5,13 -15,16 -11,2 -21,2 -23,-7z"/>
   <ellipse class="fil0" transform="matrix(0.357029 -0.934093 0.934093 0.357029 66.0187 80.6504)" rx="13" ry="4"/>
   <circle class="fil0" transform="matrix(0.160182 -0.987087 0.987087 0.160182 41.6827 100.533)" r="26"/>
   <rect class="fil0" x="30" y="121" width="7.99863" height="14.3311"/>
   <rect class="fil0" x="46" y="121" width="7.99863" height="14.3311"/>
   <ellipse class="fil0" cx="36" cy="136" rx="7" ry="2"/>
   <ellipse class="fil0" cx="52" cy="135" rx="7" ry="2"/>
   <circle class="fil1" cx="42" cy="94" r="9"/>
   <circle class="fil2" cx="42" cy="94" r="3"/>
   <path class="fil4" d="M16 76c-2,-9 5,-19 15,-21 11,-3 21,3 23,13 2,9 -5,13 -15,15 -11,2 -21,3 -23,-7z"/>
   <ellipse class="fil0" transform="matrix(0.428529 -0.903528 0.903528 0.428529 12.0273 88.3158)" rx="4" ry="13"/>
   <path class="fil1" d="M29 110c0,3 6,8 14,8 7,0 14,-8 14,-10 0,-3 -7,0 -14,0 -8,0 -14,-1 -14,2z"/>
   <path class="fil4" d="M68 0c-1,0 -2,1 -2,2l0 76c0,1 1,1 2,1l175 0c1,0 2,0 2,-1l0 -76c0,-1 -1,-2 -2,-2l-175 0z"/>
   <circle class="fil1" cx="115" cy="40" r="18"/>
   <path id="b71acdfd-6a55-428e-917a-53f192cb0203" class="fil1" d="M155 37c-1,0 -2,1 -2,2 0,2 1,3 2,3l56 0c0,0 0,0 0,0 2,0 2,-1 2,-3 0,-1 0,-2 -2,-2 0,0 0,0 0,0l-56 0z" data-name="Path 40"/>
   <path id="ad4fbcfa-41b0-45f9-a593-23b6dc3fe165" class="fil1" d="M155 25c-1,0 -2,1 -2,2 0,2 1,2 2,2l28 0c0,0 0,0 0,0 1,0 2,0 2,-2 0,-1 -1,-2 -2,-2 0,0 0,0 0,0l-28 0z" data-name="Path 40"/>
   <path id="bce2a7cd-a325-424d-9b3a-f63d1dad5aba" class="fil1" d="M155 50c-1,0 -2,1 -2,2 0,1 1,2 2,2l56 0c0,0 0,0 0,0 2,0 2,-1 2,-2 0,-1 0,-2 -2,-2 0,0 0,0 0,0l-56 0z" data-name="Path 40"/>
  </g>
 </g>
</svg>
