<?xml version="1.0" encoding="UTF-8"?>
<!DOCTYPE svg PUBLIC "-//W3C//DTD SVG 1.1//EN" "http://www.w3.org/Graphics/SVG/1.1/DTD/svg11.dtd">
<!-- Creator: CorelDRAW X8 -->
<svg xmlns="http://www.w3.org/2000/svg" xml:space="preserve" width="2.87755in" height="3.50748in" version="1.1" style="shape-rendering:geometricPrecision; text-rendering:geometricPrecision; image-rendering:optimizeQuality; fill-rule:evenodd; clip-rule:evenodd"
viewBox="0 0 130 158"
 xmlns:xlink="http://www.w3.org/1999/xlink">
 <defs>
  <style type="text/css">
   <![CDATA[
    .fil0 {fill:#2F2E41}
    .fil2 {fill:#3F3D56}
    .fil3 {fill:#6C63FF}
    .fil5 {fill:#F2F2F2}
    .fil1 {fill:white}
    .fil4 {fill:black;fill-opacity:0.200000}
   ]]>
  </style>
 </defs>
 <g id="Layer_x0020_1">
  <metadata id="CorelCorpID_0Corel-Layer"/>
  <g id="_2562083472768">
   <ellipse class="fil0" transform="matrix(0.934093 -0.357029 0.357029 0.934093 42.3295 108.794)" rx="3" ry="10"/>
   <circle class="fil0" transform="matrix(0.987087 -0.160182 0.160182 0.987087 56.7854 128.278)" r="20"/>
   <polygon class="fil0" points="66,144 60,144 61,157 66,156 "/>
   <polygon class="fil0" points="53,144 46,144 48,157 52,156 "/>
   <ellipse class="fil0" transform="matrix(0.997338 -0.0729186 0.0729186 0.997338 47.3577 156.051)" rx="5" ry="2"/>
   <circle class="fil1" cx="56" cy="123" r="7"/>
   <circle class="fil2" cx="56" cy="123" r="2"/>
   <ellipse class="fil0" transform="matrix(0.594122 -0.804375 0.804375 0.594122 78.1394 114.209)" rx="10" ry="3"/>
   <path class="fil1" d="M47 139c0,-2 4,-5 9,-5 4,0 9,4 9,6 0,2 -5,0 -9,0 -5,0 -9,0 -9,-1z"/>
   <path class="fil3" d="M113 112l-110 -16c-2,0 -3,-1 -3,-3 0,0 0,0 0,0l12 -90c1,-2 2,-3 4,-3 0,0 0,0 0,0l111 15c1,1 3,2 3,4 0,0 0,0 0,0l-13 90c0,1 -1,3 -3,3 0,0 0,0 -1,0l0 0z"/>
   <path class="fil1" d="M74 84l-57 -8c0,0 0,0 0,0l33 -43c1,0 1,-1 2,-1 1,0 1,1 2,2l13 33 1 2 6 15z"/>
   <polygon class="fil4" points="74,84 55,81 66,68 67,68 67,67 68,69 "/>
   <path class="fil1" d="M105 88l-49 -7 12 -12 1 -1 14 -16c1,-1 2,-1 2,-1 1,0 2,0 2,1 0,0 0,0 0,0l18 36z"/>
   <circle class="fil1" cx="75" cy="39" r="8"/>
   <rect class="fil2" transform="matrix(0.99053 0.13732 -0.13732 0.99053 18.058 6.92657)" width="10.3231" height="10.3231"/>
   <path class="fil5" d="M76 109c2,-7 -3,-14 -11,-16 -8,-2 -16,3 -18,10 -1,7 4,10 12,12 8,2 16,2 17,-6z"/>
   <ellipse class="fil0" transform="matrix(0.997338 -0.0729186 0.0729186 0.997338 60.8211 156.018)" rx="5" ry="2"/>
  </g>
 </g>
</svg>
